<svg width="46" height="44" viewBox="0 0 46 44" fill="none" xmlns="http://www.w3.org/2000/svg">
<path fill-rule="evenodd" clip-rule="evenodd" d="M16.7839 2.64959C16.4655 2.30984 16.3079 2.14175 16.114 2.06101C15.9241 1.98195 15.6993 1.98664 15.2544 1.99593C15.074 1.99969 14.8575 2.00422 14.5924 2.00422C14.555 2.00422 14.4881 2.01706 14.4081 2.03242C14.1071 2.09018 13.6212 2.18341 13.8318 1.76193C13.9416 1.55108 14.039 1.58607 14.1756 1.63515C14.2277 1.65387 14.2855 1.67464 14.3519 1.6846C15.0778 1.79727 15.4431 1.74486 15.6893 1.70955C16.0796 1.65357 16.1705 1.64053 16.9237 2.39599C17.1905 2.66085 17.4025 2.86303 17.572 3.0246C17.9415 3.37688 18.1085 3.53609 18.1983 3.73088C18.2724 3.89151 18.2941 4.07634 18.3336 4.41359C18.3516 4.56774 18.3734 4.75374 18.4056 4.98382C18.436 5.19242 18.4848 5.33565 18.5259 5.45611C18.5873 5.63631 18.6313 5.76556 18.5703 5.98647H18.1782C18.1583 5.93534 18.1424 5.67019 18.1247 5.37515L18.1247 5.37508C18.1076 5.09004 18.0889 4.77712 18.0632 4.60235C18.0549 4.54581 18.0475 4.49366 18.0406 4.4453C17.9674 3.93148 17.9552 3.84583 17.5849 3.47597C17.2294 3.12483 16.9771 2.85564 16.7839 2.64959ZM12.1225 3.03264C12.1225 2.34702 13.3509 2.32125 13.3509 3.03264C13.3509 3.95797 12.1225 3.95797 12.1225 3.03264ZM11.1477 32.2101C10.8608 32.1234 10.8605 32.1193 10.8515 31.9862C10.8474 31.9253 10.8414 31.8374 10.8053 31.7023L8.27011 25.7869C8.20258 25.6257 8.12029 25.4606 8.03632 25.2921C7.75636 24.7302 7.45768 24.1308 7.62456 23.5161L9.47498 16.1161C9.58013 15.7225 9.66343 15.3806 9.75286 15.0136L9.75289 15.0135L9.77815 14.9098C9.80631 14.8009 9.81791 14.6591 9.8296 14.5163C9.86022 14.1422 9.89142 13.7611 10.2225 13.9458C10.4633 14.0769 10.3776 14.2079 10.2876 14.3454L10.2876 14.3455C10.2643 14.381 10.2407 14.417 10.2225 14.4536L9.10646 18.7426C8.98057 19.2392 8.84609 19.7495 8.71025 20.265L8.71025 20.265C8.40897 21.4083 8.10099 22.5771 7.86501 23.6785C7.7685 24.1088 8.63869 26.0095 9.18338 27.1993L9.18339 27.1993C9.34675 27.5561 9.48082 27.849 9.55077 28.019L10.476 30.1764C10.5583 30.3671 10.6315 30.5321 10.7047 30.6971C10.7779 30.862 10.851 31.027 10.9334 31.2177C11.062 31.5006 11.1876 31.6667 11.2725 31.779C11.4204 31.9746 11.4449 32.007 11.1477 32.2101ZM32.4667 41.703L30.2478 42.3886C29.595 42.6094 27.6737 42.0571 26.4069 41.693L26.4067 41.6929C26.0759 41.5979 25.7898 41.5156 25.5825 41.4633C25.0956 41.3363 24.7806 41.0062 24.3716 40.5775C24.2494 40.4493 24.1187 40.3124 23.9725 40.1694C23.734 39.9336 23.5074 39.7124 23.2862 39.4966C22.5669 38.7949 21.9054 38.1495 21.0819 37.2388C20.7936 36.9243 20.4146 36.5546 20.0657 36.2143L20.0655 36.2141C19.9084 36.0608 19.7574 35.9135 19.6235 35.7799C19.5488 35.7046 19.4763 35.6295 19.4043 35.5549L19.404 35.5546L19.404 35.5546C19.2445 35.3894 19.0872 35.2265 18.9126 35.0685C18.9126 35.0685 17.8358 34.4473 18.5572 34.3313C18.7323 34.3016 18.788 34.4078 18.851 34.5277C18.8698 34.5635 18.8892 34.6005 18.9126 34.6355L21.4609 37.213L24.3881 40.1075C24.521 40.2374 24.6273 40.3548 24.7242 40.4617L24.7243 40.4617C25.0619 40.8342 25.2845 41.0798 26.1131 41.288C26.8867 41.4788 27.6472 41.6695 28.4209 41.8834C28.6258 41.938 28.7929 41.9869 28.9351 42.0284L28.9352 42.0285C29.6192 42.2286 29.7244 42.2594 30.6895 41.935C31.1088 41.7913 31.4354 41.6605 31.6876 41.5594C32.3581 41.2909 32.5028 41.2329 32.4667 41.703ZM14.974 0.468018H16.4193C16.6336 0.493793 16.8009 0.555652 16.9263 0.684527L19.1688 2.93212C19.3679 3.16093 19.6139 5.05045 19.7533 6.12136C19.7913 6.41365 19.8214 6.64495 19.8405 6.76488L21.9705 21.5881C22.0209 21.7385 22.0871 21.8815 22.1561 22.0301L22.1561 22.0302C22.2088 22.1439 22.2631 22.2609 22.3129 22.3872C22.7572 23.4903 23.1623 24.5059 23.5805 25.6116C23.8893 26.4317 24.3071 27.4381 24.7307 28.4583L24.7307 28.4583C25.2643 29.7435 25.807 31.0505 26.1523 32.0348L26.171 32.0882L26.171 32.0883C26.5117 33.0607 26.9746 34.3822 27.6342 35.0427L32.1348 39.5482C32.4827 39.8991 32.7548 40.1597 32.9674 40.3633C33.3949 40.7728 33.5815 40.9515 33.6588 41.169C33.7187 41.3375 33.7131 41.5293 33.7031 41.8697C33.6983 42.0336 33.6925 42.232 33.6925 42.4789L30.2321 43.5949C29.7548 43.7929 29.7447 43.7898 29.4519 43.6998C29.3711 43.6749 29.2687 43.6435 29.1291 43.6078C28.9743 43.5663 28.6782 43.4934 28.3061 43.4018L28.3056 43.4017L28.3055 43.4017C26.9692 43.0729 24.653 42.503 24.375 42.2752L19.8117 37.7569C19.672 37.6249 19.5042 37.4531 19.3275 37.2722L19.3275 37.2721C18.9589 36.8947 18.5513 36.4774 18.2775 36.298C18.345 36.5336 18.5066 36.6911 18.6672 36.8478L18.6672 36.8479C18.7491 36.9277 18.8307 37.0074 18.8996 37.097C19.0167 37.2478 19.0682 37.3039 19.192 37.4384L19.2289 37.4785L23.3113 42.2263C22.8043 42.2263 18.5572 40.7158 18.0501 40.5251C17.7493 40.4043 17.4568 40.3201 17.1725 40.2382C16.6196 40.0789 16.0975 39.9286 15.6038 39.5353C15.3218 39.3113 15.0554 39.0986 14.7925 38.8887L14.7908 38.8873C14.4282 38.5978 14.0721 38.3136 13.6907 38.012C13.4354 37.8141 13.2091 37.629 12.9686 37.4322C12.8866 37.3651 12.8029 37.2967 12.7158 37.2259C12.3805 36.9538 12.1384 36.7724 11.9561 36.6358L11.956 36.6358C11.4079 36.2252 11.4007 36.2198 11.0301 35.3727L9.49589 31.7925C9.44092 31.6649 9.38688 31.5392 9.3334 31.4147C9.04106 30.7342 8.76518 30.0921 8.44261 29.4057C8.33966 29.1883 8.2567 28.9867 8.17354 28.7846L8.17353 28.7846C8.09203 28.5865 8.01034 28.388 7.90944 28.1737C7.58013 27.4752 6.12175 24.328 6.18447 23.9466L8.75624 13.6417L10.0735 11.523C10.1839 11.3378 10.2887 11.1708 10.3949 11.0017C10.5074 10.8225 10.6215 10.6409 10.7452 10.4327C10.7972 10.3453 10.8573 10.2553 10.9187 10.1636L10.9187 10.1636C11.0979 9.89549 11.2877 9.61178 11.3149 9.3295C11.1281 9.27782 11.0159 9.18241 10.8902 9.07555C10.8279 9.02252 10.7622 8.96666 10.6825 8.91194L5.96755 5.33178C5.63474 5.05903 5.41343 4.91168 5.25575 4.80671C4.87852 4.55556 4.86556 4.54694 4.56144 3.64351C4.45533 3.32528 4.36135 3.04691 4.266 2.76451L4.26596 2.76437C4.18988 2.53904 4.11293 2.31112 4.02827 2.05834C3.9949 1.95777 3.95183 1.83865 3.90534 1.71007C3.75882 1.30481 3.57829 0.805527 3.56043 0.49637H14.9295H14.9687V0.468018H14.974ZM28.3282 26.5494C30.1454 27.4655 31.8415 28.3206 32.0539 28.3206C32.2634 28.3206 33.5057 27.904 34.5788 27.5442C35.2315 27.3254 35.8216 27.1275 36.0785 27.0572C36.567 26.9178 37.0253 26.7617 37.4777 26.6077L37.4779 26.6076L37.4781 26.6076C37.6869 26.5365 37.8944 26.4658 38.1029 26.3975C38.4356 26.2865 38.7101 26.2 38.9422 26.1268L38.9423 26.1268C39.462 25.963 39.7694 25.8661 40.0436 25.7105C40.4408 25.485 40.768 25.1363 41.5694 24.2822L41.5703 24.2812C41.7197 24.122 41.8856 23.9452 42.0714 23.7485L45.0157 20.7327C45.0215 20.7258 45.0321 20.7188 45.0427 20.7119L45.0427 20.7118C45.0516 20.7061 45.0604 20.7003 45.0665 20.6945C45.0723 20.6875 45.0829 20.6806 45.0935 20.6737C45.1023 20.6679 45.1112 20.6621 45.1173 20.6563C45.1473 20.6352 45.159 20.6225 45.1672 20.6136C45.1838 20.5955 45.1863 20.5927 45.2991 20.5671C45.2991 20.6714 45.3006 20.7801 45.302 20.8899V20.89C45.305 21.1127 45.3081 21.3397 45.2991 21.5427C45.293 21.7217 45.2735 21.8244 45.2542 21.9264L45.2542 21.9265C45.2311 22.0479 45.2082 22.1686 45.2082 22.4163L45.0263 27.0929C44.9834 27.3671 44.7833 27.7812 44.605 28.15L44.6049 28.1504C44.5613 28.2404 44.5191 28.3278 44.4808 28.4097C44.4327 28.5155 44.3851 28.6077 44.3363 28.7024L44.3363 28.7025C44.2793 28.813 44.2206 28.9268 44.1572 29.0694L41.3948 35.0016L34.4794 40.6664C34.1665 40.4627 27.7084 34.1407 27.5773 33.9242L23.6597 24.3547C24.0258 24.3805 26.2557 25.5046 28.3281 26.5494L28.3282 26.5494ZM43.4753 24.5806C43.4842 24.5752 43.4941 24.5716 43.5122 24.5648C43.537 24.5555 43.5774 24.5404 43.6518 24.5075C43.7069 26.638 43.6006 26.8658 42.9429 28.2753C42.8339 28.5088 42.7098 28.7748 42.5688 29.0872C42.5102 29.202 42.3818 29.395 42.2978 29.5213L42.2978 29.5213C42.2513 29.5911 42.2185 29.6405 42.2185 29.6451C42.1409 29.8718 42.3762 30.1519 42.5955 29.9227L43.1277 28.5676C44.0102 26.6649 44.1011 26.4 43.9968 23.751C43.7259 23.8952 43.0793 24.57 42.4155 25.2628L42.4155 25.2629L42.4154 25.263L42.4153 25.263C41.6836 26.0267 40.9311 26.8122 40.638 26.9324C40.1356 27.1387 39.5243 27.3214 38.9354 27.4974L38.9353 27.4974L38.9353 27.4974C38.659 27.58 38.3877 27.661 38.135 27.7424L33.1931 29.3521C33.0076 29.41 32.8534 29.4603 32.7231 29.5029C32.3283 29.6318 32.1528 29.6891 31.9876 29.6675C31.8553 29.6502 31.7297 29.5823 31.5035 29.4601C31.3502 29.3772 31.1508 29.2695 30.8719 29.1356C30.4828 28.9459 30.1098 28.7682 29.7401 28.5922C29.3704 28.4161 29.004 28.2416 28.6283 28.0582L26.7082 27.1081C26.6269 27.0498 26.6041 27.0157 26.5883 26.9922C26.5661 26.9592 26.5578 26.9468 26.4221 26.9171C26.1119 26.8407 25.9809 27.0546 26.1627 27.2711C26.2656 27.392 26.2927 27.3925 26.3674 27.394C26.4344 27.3953 26.5397 27.3973 26.7724 27.4877L30.0937 29.0847C30.4651 29.2631 30.7527 29.4137 30.9869 29.5363C31.4247 29.7655 31.6763 29.8972 31.9406 29.9315C32.2978 29.9778 32.6782 29.8461 33.5727 29.5363C33.9268 29.4137 34.3615 29.2631 34.9073 29.0847C35.6081 28.8586 36.3176 28.6279 37.0293 28.3965L37.0297 28.3963L37.0302 28.3962C37.9936 28.0829 38.961 27.7683 39.916 27.4622C41.266 27.0249 41.8111 26.3795 42.3867 25.6979L42.3868 25.6979C42.6628 25.371 42.9459 25.0358 43.3282 24.7113C43.3838 24.6629 43.4153 24.6333 43.4356 24.6142C43.4556 24.5955 43.4648 24.5869 43.4753 24.5806ZM0.543435 40.2586C0.463354 40.1729 0.465108 40.0107 0.47016 39.5436C0.471672 39.4039 0.473478 39.2369 0.473478 39.0365C0.473478 38.7216 0.620287 38.5508 0.792932 38.3501L0.792998 38.35C0.821118 38.3173 0.849923 38.2838 0.878891 38.2487L3.35825 35.0343C3.60426 34.7063 3.79564 34.4722 3.94719 34.2869C4.3835 33.7533 4.48966 33.6235 4.61862 32.8159L5.36049 27.8942C5.38909 27.6165 5.44238 27.3265 5.49482 27.0412C5.56376 26.666 5.63121 26.299 5.63904 25.9788C5.89971 26.1759 6.43239 27.5041 6.73718 28.264C6.81937 28.4689 6.88498 28.6325 6.92423 28.7215C7.1752 29.259 10.4654 36.4518 10.5178 37.0288L5.5701 40.0746C5.49382 40.1214 5.36697 40.2087 5.20902 40.3173C4.56734 40.7586 3.41232 41.5531 3.04937 41.4262L1.2843 40.6121C1.23366 40.5869 1.20602 40.5694 1.18008 40.553C1.13822 40.5265 1.10077 40.5028 0.978176 40.454C0.888156 40.4144 0.813798 40.3872 0.752427 40.3649L0.752394 40.3649C0.651733 40.3281 0.586015 40.3042 0.543435 40.2586ZM2.94851 38.2527C3.11308 38.0358 3.25841 37.8442 3.44651 37.6058L5.71626 34.5495C6.084 34.0921 6.08952 34.0441 6.15382 33.4839L6.15384 33.4837C6.16138 33.418 6.16974 33.3452 6.17959 33.2638C6.23199 32.7527 6.29818 32.2257 6.36437 31.7146C6.37729 31.6178 6.41201 31.4906 6.44884 31.3556C6.5614 30.9431 6.69374 30.4581 6.28439 30.5474C6.07108 30.5944 6.07352 30.6694 6.08261 30.9489C6.0888 31.1391 6.09808 31.4241 6.04446 31.8595C5.99324 32.266 5.95787 32.5895 5.92903 32.8534C5.86319 33.4555 5.83132 33.7471 5.72245 34.0063C5.62028 34.2496 5.45027 34.4643 5.12072 34.8807C4.96114 35.0823 4.76415 35.3312 4.51933 35.6535L2.05376 38.8811C1.99075 38.9467 1.92535 39.0038 1.86615 39.0554C1.64036 39.2523 1.50472 39.3706 1.93517 39.5898C2.16672 39.4976 2.17028 39.4877 2.20849 39.3811C2.24674 39.2745 2.31972 39.071 2.69084 38.5912C2.78567 38.4673 2.86919 38.3572 2.94826 38.253L2.94851 38.2527ZM42.145 4.69726C42.3103 4.49995 42.4994 4.27418 42.5948 4.09653C42.8103 4.31438 43.0018 4.59894 43.1959 4.88726C43.3163 5.06623 43.4377 5.24664 43.5665 5.41345C43.6279 5.49917 43.6609 5.55357 43.6947 5.6092C43.726 5.66061 43.7578 5.71307 43.8133 5.79229C43.861 5.86007 43.8919 5.89976 43.92 5.93588C43.9539 5.97941 43.9837 6.01775 44.0339 6.09381C44.0399 6.10842 44.0678 6.15122 44.0933 6.19023C44.1127 6.22001 44.1307 6.24759 44.1364 6.25875C44.3156 6.51549 44.3604 6.52396 44.3732 6.54886C44.3836 6.5692 44.3727 6.60051 44.3964 6.78706L44.1232 13.2737C44.1232 14.1269 44.1075 14.4704 44.162 14.8024C44.2274 15.2014 44.3941 15.5838 44.8113 16.8147C44.872 16.9827 44.9119 17.1242 44.952 17.2665C44.99 17.4013 45.0282 17.5368 45.0844 17.696C45.1096 17.7664 45.1335 17.8279 45.1556 17.8849C45.2372 18.0952 45.2947 18.2433 45.305 18.5413L43.8921 20.0541C43.6449 20.302 43.3389 20.5864 43.0219 20.881C42.4228 21.4377 41.7843 22.031 41.4288 22.4843C41.2242 22.7483 40.9909 22.9654 40.7456 23.1936C40.6509 23.2817 40.5544 23.3715 40.4571 23.4662C40.002 23.9085 39.9292 24.0208 39.8258 24.0757C39.7407 24.1209 39.635 24.1272 39.2779 24.2471C38.9868 24.3505 38.618 24.4765 38.273 24.5944C38.1107 24.6499 37.9537 24.7036 37.8125 24.7522L36.3865 25.2058C36.4063 24.9788 36.5942 24.7022 36.7913 24.4122C36.856 24.3169 36.9216 24.2202 36.9827 24.1234L38.3036 22.0694C38.6681 21.4765 38.8798 21.2767 38.9324 21.0413C39.0071 20.7068 38.7607 20.3006 38.1749 18.5929C38.0708 18.2876 38.0007 18.0466 37.9448 17.8545C37.7724 17.2619 37.7358 17.1362 37.2558 17.0311C36.9102 16.9526 36.0936 16.8046 35.1591 16.6351C33.3948 16.3153 31.2102 15.9192 30.9819 15.7709C30.8695 15.6913 30.1947 14.6859 29.8162 14.1219C29.7171 13.9743 29.6383 13.8568 29.5952 13.7943C29.5632 13.7488 29.5191 13.6868 29.4662 13.6126C29.1115 13.1146 28.3665 12.0688 28.2979 11.8176C28.6437 11.789 29.3932 11.5278 29.9694 11.3269C30.1722 11.2563 30.3535 11.1931 30.4881 11.1501L35.8928 9.40026C35.9556 9.37897 35.9911 9.36938 36.0217 9.36109C36.0616 9.35033 36.0932 9.34177 36.1659 9.31264C36.4949 9.172 37.7016 7.65073 38.8025 6.26269C39.4769 5.41249 40.1116 4.61227 40.4807 4.20993C40.5703 4.1116 40.6805 3.96073 40.8029 3.79318C41.1039 3.38106 41.4787 2.86797 41.8017 2.78735C41.8452 2.93444 41.8463 2.94968 41.854 2.95452C41.862 2.95961 41.8773 2.95324 41.9566 3.07599L42.4504 3.84398C42.341 4.02942 42.1991 4.19049 42.0475 4.36248C41.9842 4.43429 41.9192 4.50801 41.8542 4.58619L40.6488 6.04742C40.5383 6.18366 40.4275 6.26204 40.3366 6.3263C40.1834 6.43465 40.0869 6.50287 40.1446 6.74067C40.4655 7.04396 40.5679 6.80134 40.6699 6.55986C40.704 6.47919 40.738 6.39865 40.7801 6.33864L41.9855 4.89029C42.0324 4.83159 42.0872 4.76616 42.145 4.69726ZM43.4636 16.4992C43.3753 16.2318 43.2871 15.9647 43.2041 15.6988C43.0593 15.237 43.0202 14.9531 42.9956 14.7741C42.9631 14.5376 42.9557 14.4844 42.7629 14.4463C42.2832 14.357 42.5263 14.846 42.6898 15.175C42.734 15.2639 42.7724 15.3411 42.7891 15.3921C43.4113 17.3353 43.6919 17.8302 43.5693 18.1862C43.5051 18.3727 43.3303 18.5211 43.036 18.8197L40.1314 21.6932C40.0835 21.7253 40.03 21.7507 39.9789 21.775C39.8088 21.8557 39.6654 21.9238 39.8452 22.1854C40.0248 22.4542 40.1605 22.2606 40.3554 21.9827C40.4427 21.8583 40.5418 21.717 40.6619 21.5927C40.9272 21.3186 41.2012 21.0554 41.4736 20.7937C41.7621 20.5166 42.0488 20.2412 42.3217 19.9562C42.4397 19.8349 42.5901 19.6876 42.7534 19.5278C43.2009 19.0898 43.7448 18.5575 43.9814 18.2063C43.8402 17.6399 43.6516 17.0687 43.4636 16.4992Z" fill="#EE972D"/>
</svg>
