<svg width="29" height="29" viewBox="0 0 29 29" fill="none" xmlns="http://www.w3.org/2000/svg">
<path d="M25.0599 0.639893H3.93989C2.11829 0.639893 0.639893 2.11829 0.639893 3.93989V25.0599C0.639893 26.8815 2.11829 28.3599 3.93989 28.3599H25.0599C26.8815 28.3599 28.3599 26.8815 28.3599 25.0599V3.93989C28.3599 2.11829 26.8815 0.639893 25.0599 0.639893ZM9.21989 11.1999V23.7399H5.25989V11.1999H9.21989ZM5.25989 7.55009C5.25989 6.62609 6.05189 5.91989 7.23989 5.91989C8.42789 5.91989 9.17369 6.62609 9.21989 7.55009C9.21989 8.47409 8.48069 9.21989 7.23989 9.21989C6.05189 9.21989 5.25989 8.47409 5.25989 7.55009ZM23.7399 23.7399H19.7799C19.7799 23.7399 19.7799 17.6283 19.7799 17.1399C19.7799 15.8199 19.1199 14.4999 17.4699 14.4735H17.4171C15.8199 14.4735 15.1599 15.8331 15.1599 17.1399C15.1599 17.7405 15.1599 23.7399 15.1599 23.7399H11.1999V11.1999H15.1599V12.8895C15.1599 12.8895 16.4337 11.1999 18.9945 11.1999C21.6147 11.1999 23.7399 13.0017 23.7399 16.6515V23.7399Z" fill="white"/>
</svg>
