<svg width="21" height="22" viewBox="0 0 21 22" fill="none" xmlns="http://www.w3.org/2000/svg">
<path d="M5.17 13.5H0.46C0.16 12.55 0 11.545 0 10.5C0 9.455 0.16 8.45 0.46 7.5H5.17C5.055 8.485 5 9.5 5 10.5C5 11.5 5.055 12.515 5.17 13.5ZM5.385 15C5.735 17 6.33 18.81 7.15 20.085C4.49 19.3 2.295 17.435 1.07 15H5.385ZM5.385 6H1.07C2.295 3.565 4.49 1.7 7.15 0.915C6.33 2.19 5.735 4 5.385 6ZM12.145 15V18.185C11.545 19.57 10.815 20.415 10.11 20.495C10.075 20.5 10.035 20.5 10 20.5C9.965 20.5 9.925 20.5 9.89 20.495C8.74 20.365 7.53 18.215 6.91 15H12.145ZM6.91 6C7.53 2.785 8.74 0.635 9.89 0.505C9.925 0.5 9.965 0.5 10 0.5C10.035 0.5 10.075 0.5 10.11 0.505C11.26 0.635 12.47 2.785 13.09 6H6.91ZM13.425 8.58C13.29 8.6 13.155 8.645 13.03 8.7C12.49 8.955 12.145 9.495 12.145 10.08V13.5H6.675C6.565 12.56 6.5 11.555 6.5 10.5C6.5 9.445 6.565 8.44 6.675 7.5H13.325C13.365 7.85 13.4 8.21 13.425 8.58ZM14.615 6C14.265 4 13.67 2.19 12.85 0.915C15.51 1.7 17.705 3.565 18.93 6H14.615ZM20 10.5C20 11.415 19.875 12.3 19.645 13.145L14.97 9.19C14.94 8.62 14.895 8.055 14.83 7.5H19.54C19.84 8.45 20 9.455 20 10.5ZM20.925 15.99C20.85 16.195 20.655 16.33 20.435 16.33H17.915L19.469 19.75C19.6985 20.2545 19.4735 20.8495 18.9675 21.076L18.473 21.2975C17.9705 21.5225 17.381 21.2995 17.1535 20.7985L15.615 17.41L14.065 19.27C13.925 19.44 13.695 19.5 13.49 19.425C13.285 19.35 13.145 19.155 13.145 18.935V10.08C13.145 9.88 13.265 9.695 13.445 9.61C13.63 9.525 13.85 9.555 14.005 9.685L20.775 15.415C20.94 15.555 21 15.785 20.925 15.99Z" fill="white"/>
</svg>
