<svg width="75" height="75" viewBox="0 0 75 75" fill="none" xmlns="http://www.w3.org/2000/svg">
<rect x="1" y="1" width="73" height="73" rx="36.5" fill="#631B81" stroke="white" stroke-width="2"/>
<path d="M37.9999 20.4399C37.4852 20.4399 36.9705 20.5693 36.5121 20.8281L24.3846 27.6428C23.4564 28.1631 22.8799 29.139 22.8799 30.1853V43.8146C22.8799 44.8609 23.4564 45.8368 24.3846 46.3571L36.5121 53.1718C36.9705 53.4306 37.4852 53.5599 37.9999 53.5599C38.5146 53.5599 39.0293 53.4306 39.4877 53.1718L51.6152 46.3599C52.5433 45.8368 53.1199 44.8609 53.1199 43.8146V30.1853C53.1199 29.139 52.5433 28.1631 51.6152 27.6428L39.4877 20.8281C39.0293 20.5693 38.5146 20.4399 37.9999 20.4399ZM37.9999 28.3599C40.7224 28.3599 43.2396 29.6228 44.8708 31.7715L41.7152 33.5996C40.7674 32.5618 39.4202 31.9599 37.9999 31.9599C35.2211 31.9599 32.9599 34.2212 32.9599 36.9999C32.9599 39.7787 35.2211 42.0399 37.9999 42.0399C39.4202 42.0399 40.7674 41.4381 41.7152 40.4003L44.8708 42.2284C43.2396 44.3771 40.7224 45.6399 37.9999 45.6399C33.2355 45.6399 29.3599 41.7643 29.3599 36.9999C29.3599 32.2356 33.2355 28.3599 37.9999 28.3599ZM45.1999 33.3999H46.6399V34.8399H48.0799V33.3999H49.5199V34.8399H50.9599V36.2799H49.5199V37.7199H50.9599V39.1599H49.5199V40.5999H48.0799V39.1599H46.6399V40.5999H45.1999V39.1599H43.7599V37.7199H45.1999V36.2799H43.7599V34.8399H45.1999V33.3999ZM46.6399 36.2799V37.7199H48.0799V36.2799H46.6399Z" fill="white"/>
</svg>
