<svg width="75" height="75" viewBox="0 0 75 75" fill="none" xmlns="http://www.w3.org/2000/svg">
<rect x="1" y="1" width="73" height="73" rx="36.5" fill="#A259FF" stroke="white" stroke-width="2"/>
<path d="M32.8055 55C29.906 55 27.5555 52.6495 27.5555 49.75C27.5555 46.8505 29.906 44.5 32.8055 44.5H36.5555C37.3835 44.5 38.0555 45.172 38.0555 46V49.75C38.0555 52.6495 35.705 55 32.8055 55ZM44.75 31H41C40.172 31 39.5 30.328 39.5 29.5V22C39.5 21.172 40.172 20.5 41 20.5H44.75C47.6495 20.5 50 22.8505 50 25.75C50 28.6495 47.6495 31 44.75 31ZM32.75 31H36.5C37.328 31 38 30.328 38 29.5V22C38 21.172 37.328 20.5 36.5 20.5H32.75C29.8505 20.5 27.5 22.8505 27.5 25.75C27.5 28.6495 29.8505 31 32.75 31ZM32.75 43H36.5C37.328 43 38 42.328 38 41.5V34C38 33.172 37.328 32.5 36.5 32.5H32.75C29.8505 32.5 27.5 34.8505 27.5 37.75C27.5 40.6495 29.8505 43 32.75 43ZM44 32.5C42.8065 32.5 41.6619 32.9741 40.818 33.818C39.9741 34.6619 39.5 35.8065 39.5 37C39.5 38.1935 39.9741 39.3381 40.818 40.182C41.6619 41.0259 42.8065 41.5 44 41.5C45.1935 41.5 46.3381 41.0259 47.182 40.182C48.0259 39.3381 48.5 38.1935 48.5 37C48.5 35.8065 48.0259 34.6619 47.182 33.818C46.3381 32.9741 45.1935 32.5 44 32.5Z" fill="white"/>
</svg>
