<svg width="75" height="75" viewBox="0 0 75 75" fill="none" xmlns="http://www.w3.org/2000/svg">
<rect x="1" y="1" width="73" height="73" rx="36.5" fill="#EB2025" stroke="white" stroke-width="2"/>
<path d="M39.9471 19C41.8455 23.5811 33.0997 26.3882 32.2884 30.2067C31.5474 33.7115 37.4753 37.8221 37.4807 37.8221C36.5829 36.3726 35.9176 35.1502 35.0144 32.8894C33.4891 29.0709 44.3335 25.6256 39.9471 19ZM45.7019 25.3606C45.7019 25.3606 38.0865 25.8528 37.6971 30.9423C37.524 33.2085 39.7091 34.3984 39.774 36.0481C39.8227 37.3948 38.4327 38.5144 38.4327 38.5144C38.4327 38.5144 40.9098 38.0601 41.6778 36.0048C42.527 33.7224 40.039 32.1647 40.2932 30.3365C40.5366 28.5895 45.7019 25.3606 45.7019 25.3606ZM47.5625 37.0865C46.762 37.0487 45.8587 37.3516 45.0528 37.9519C46.6322 37.595 47.9952 38.6064 47.9952 39.7692C47.9952 42.3762 44.3605 44.8317 44.3605 44.8317C44.3605 44.8317 49.9855 44.1881 49.9855 39.899C49.9855 38.1304 48.893 37.1514 47.5625 37.0865ZM32.5913 37.1298C30.6226 37.2001 26.7067 37.53 26.7067 39.0769C26.7067 41.2296 35.869 41.3972 42.4134 40.0721C42.4134 40.0721 44.155 38.8065 44.6202 38.3413C40.3311 39.25 30.5577 39.3906 30.5577 38.601C30.5577 37.8762 33.7163 37.1298 33.7163 37.1298C33.7163 37.1298 33.2458 37.1082 32.5913 37.1298ZM32.0288 41.1106C30.9525 41.1106 29.3461 41.9651 29.3461 42.7981C29.3461 44.4748 37.4266 45.762 43.4086 43.3173L41.3317 42.0192C37.2752 43.3714 29.8167 42.9225 32.0288 41.1106ZM33.024 44.875C31.5528 44.875 30.6009 45.8215 30.6009 46.5192C30.6009 48.6665 39.3629 48.8774 42.8461 46.6923L40.6394 45.2212C38.0378 46.3624 31.5204 46.5301 33.024 44.875ZM28.0913 46.8221C25.6953 46.7734 24.1538 47.8822 24.1538 48.8125C24.1538 53.7614 48.7307 53.5234 48.7307 48.4663C48.7307 47.628 47.7734 47.2278 47.4327 47.0385C49.4393 51.8738 27.3557 51.4952 27.3557 48.6394C27.3557 47.9904 28.9675 47.3413 30.4711 47.6442L29.173 46.9087C28.7998 46.8492 28.4321 46.8275 28.0913 46.8221ZM51.2836 50.1538C47.5516 53.8371 38.0811 55.1569 28.5673 52.8798C38.0811 56.9363 51.2403 54.6809 51.2836 50.1538Z" fill="white"/>
</svg>
