<svg width="75" height="75" viewBox="0 0 75 75" fill="none" xmlns="http://www.w3.org/2000/svg">
<rect x="1" y="1" width="73" height="73" rx="36.5" fill="#F6DD04" stroke="white" stroke-width="2"/>
<path d="M51.2018 21.8799H24.8008C23.7405 21.8799 22.8799 22.7405 22.8799 23.8008V50.1989C22.8799 51.2593 23.7405 52.1199 24.8008 52.1199H51.1989C52.2593 52.1199 53.1199 51.2593 53.1199 50.2018V23.8008C53.1199 22.7405 52.2593 21.8799 51.2018 21.8799ZM39.4399 45.0521C39.4399 47.9293 37.7524 49.2399 35.2886 49.2399C33.0611 49.2399 31.4552 47.7464 30.7999 46.3599L33.0639 44.9902C33.4999 45.7636 34.1636 46.3599 35.1199 46.3599C36.0339 46.3599 36.5599 46.0027 36.5599 44.6133V35.5599H39.4399V45.0521ZM45.6864 49.2399C43.1355 49.2399 41.6871 47.9546 40.8799 46.3599L43.0399 44.9199C43.6277 45.8818 44.2689 46.8014 45.6246 46.8014C46.7636 46.8014 47.3599 46.2333 47.3599 45.4458C47.3599 44.5064 46.7411 44.1718 45.4896 43.6233L44.8033 43.328C42.8205 42.4843 41.5014 41.4268 41.5014 39.188C41.5014 37.1293 43.0736 35.5599 45.5261 35.5599C47.2727 35.5599 48.5271 36.1674 49.4327 37.7593L47.2952 39.1346C46.8227 38.288 46.3164 37.9561 45.5261 37.9561C44.7218 37.9561 44.2127 38.468 44.2127 39.1346C44.2127 39.9586 44.7218 40.2905 45.9002 40.8024L46.5864 41.0977C48.9236 42.0961 50.2399 43.1171 50.2399 45.4121C50.2399 47.8843 48.2964 49.2399 45.6864 49.2399Z" fill="white"/>
</svg>
