<svg width="75" height="75" viewBox="0 0 75 75" fill="none" xmlns="http://www.w3.org/2000/svg">
<rect x="1" y="1" width="73" height="73" rx="36.5" fill="#4E5B92" stroke="white" stroke-width="2"/>
<path d="M38 27.6399C28.3109 27.6399 20.72 31.7518 20.72 36.9999C20.72 42.248 28.3109 46.3599 38 46.3599C47.689 46.3599 55.28 42.248 55.28 36.9999C55.28 31.7518 47.689 27.6399 38 27.6399ZM36.2056 30.5199H38.0928L37.4937 33.3999H39.1784C40.2472 33.3999 40.9643 33.549 41.3722 33.923C41.7715 34.2915 41.8925 34.8961 41.7322 35.7202L40.984 39.1599H39.0659L39.755 35.979C39.8393 35.543 39.8056 35.2393 39.6593 35.079C39.5131 34.9186 39.1925 34.8399 38.7115 34.8399H37.2012L36.29 39.1599H34.4L36.2056 30.5199ZM27.92 33.3999H31.759C33.59 33.3999 34.6981 34.6261 34.265 36.4571C33.7615 38.5833 32.4115 39.1599 29.9309 39.1599H28.744L28.3672 41.3199H26.4603L27.92 33.3999ZM43.04 33.3999H46.879C48.71 33.3999 49.8181 34.6261 49.385 36.4571C48.8815 38.5833 47.5315 39.1599 45.0509 39.1599H43.864L43.4872 41.3199H41.5803L43.04 33.3999ZM29.554 34.8399L29.0112 37.7199H30.2431C31.309 37.7199 32.299 37.599 32.465 36.0099C32.5268 35.394 32.2709 34.8399 31.039 34.8399H29.554ZM44.674 34.8399L44.1312 37.7199H45.3631C46.429 37.7199 47.419 37.599 47.585 36.0099C47.6468 35.394 47.3909 34.8399 46.159 34.8399H44.674Z" fill="white"/>
</svg>
