<svg width="26" height="24" viewBox="0 0 26 24" fill="none" xmlns="http://www.w3.org/2000/svg">
<path d="M24.6532 7.03011C24.3742 6.55347 23.7616 6.39326 23.285 6.67226C22.8083 6.95125 22.6481 7.56381 22.9271 8.04044L24.6532 7.03011ZM23.7901 16.4651L22.9271 15.9599L22.9271 15.9599L23.7901 16.4651ZM9.21952 21.0369C8.6973 20.8572 8.12825 21.1348 7.9485 21.657C7.76875 22.1792 8.04638 22.7483 8.56859 22.928L9.21952 21.0369ZM2.20986 16.465L3.07288 15.9599L3.07288 15.9599L2.20986 16.465ZM2.20987 7.53528L3.07289 8.04045L3.07289 8.04045L2.20987 7.53528ZM15.5549 9.29125C15.9546 9.67241 16.5876 9.6574 16.9688 9.25774C17.3499 8.85807 17.3349 8.22508 16.9352 7.84392L15.5549 9.29125ZM8.6576 15.8877C9.01646 16.3076 9.64769 16.357 10.0675 15.9981C10.4873 15.6393 10.5367 15.008 10.1779 14.5882L8.6576 15.8877ZM18.7423 12.0811C18.7423 11.5288 18.2945 11.0811 17.7423 11.0811C17.19 11.0811 16.7423 11.5288 16.7423 12.0811H18.7423ZM12.9993 15.8979C12.447 15.8979 11.9993 16.3456 11.9993 16.8979C11.9993 17.4501 12.447 17.8979 12.9993 17.8979V15.8979ZM24.2127 2.03501C24.6001 1.64143 24.5951 1.00828 24.2015 0.620844C23.8079 0.233406 23.1748 0.238392 22.7874 0.631979L24.2127 2.03501ZM2.53735 21.2034C2.14991 21.597 2.1549 22.2301 2.54848 22.6176C2.94207 23.005 3.57522 23 3.96265 22.6064L2.53735 21.2034ZM22.9271 8.04044C24.3576 10.4843 24.3576 13.516 22.9271 15.9599L24.6532 16.9702C26.4489 13.9023 26.4489 10.098 24.6532 7.03011L22.9271 8.04044ZM22.9271 15.9599C19.9623 21.025 14.1205 22.7238 9.21952 21.0369L8.56859 22.928C14.2992 24.9005 21.1698 22.9211 24.6532 16.9702L22.9271 15.9599ZM3.07288 15.9599C1.64237 13.516 1.64237 10.4843 3.07289 8.04045L1.34685 7.03011C-0.448948 10.098 -0.448949 13.9023 1.34684 16.9702L3.07288 15.9599ZM5.6034 18.9853C4.63646 18.1678 3.77575 17.1606 3.07288 15.9599L1.34684 16.9702C2.1642 18.3666 3.17191 19.5486 4.3122 20.5126L5.6034 18.9853ZM3.07289 8.04045C6.69099 1.85936 14.6022 0.693447 19.831 4.56718L21.0216 2.96016C14.8898 -1.58259 5.59896 -0.234107 1.34685 7.03011L3.07289 8.04045ZM9.25775 12.0811C9.25775 9.95617 10.9475 8.26281 12.9993 8.26281V6.26281C9.81297 6.26281 7.25775 8.88183 7.25775 12.0811H9.25775ZM12.9993 8.26281C13.9857 8.26281 14.8834 8.65085 15.5549 9.29125L16.9352 7.84392C15.9097 6.86583 14.5239 6.26281 12.9993 6.26281V8.26281ZM10.1779 14.5882C9.60536 13.9185 9.25775 13.0435 9.25775 12.0811H7.25775C7.25775 13.5342 7.78486 14.8668 8.6576 15.8877L10.1779 14.5882ZM16.7423 12.0811C16.7423 14.2039 15.0516 15.8979 12.9993 15.8979V17.8979C16.1849 17.8979 18.7423 15.2795 18.7423 12.0811H16.7423ZM22.7874 0.631979L2.53735 21.2034L3.96265 22.6064L24.2127 2.03501L22.7874 0.631979Z" fill="white"/>
</svg>
