<svg width="24" height="22" viewBox="0 0 24 22" fill="none" xmlns="http://www.w3.org/2000/svg">
<path fill-rule="evenodd" clip-rule="evenodd" d="M1.25066 6.43977C6.07477 -1.70193 17.9252 -1.70193 22.7493 6.43977C24.4169 9.2541 24.4169 12.7462 22.7493 15.5606C17.9252 23.7023 6.07477 23.7023 1.25066 15.5606C-0.416886 12.7462 -0.416886 9.2541 1.25066 6.43977ZM8.48709 11.0733C8.48709 9.1247 10.0594 7.54707 11.9993 7.54707C13.9395 7.54707 15.5129 9.12504 15.5129 11.0733C15.5129 13.0199 13.9397 14.5981 11.9993 14.5981C10.0593 14.5981 8.48709 13.0203 8.48709 11.0733ZM11.9993 5.89546C9.15018 5.89546 6.84137 8.21288 6.84137 11.0733C6.84137 13.9324 9.15035 16.2497 11.9993 16.2497C14.8479 16.2497 17.1586 13.9328 17.1586 11.0733C17.1586 8.21254 14.8481 5.89546 11.9993 5.89546Z" fill="white"/>
</svg>
