<svg width="77" height="77" viewBox="0 0 77 77" fill="none" xmlns="http://www.w3.org/2000/svg">
<rect width="77" height="77" rx="13" fill="#EBEBEB"/>
<path d="M35.7812 25.8125C34.2874 25.8125 33.0625 27.0374 33.0625 28.5312V29.4375H28.5312C27.0374 29.4375 25.8125 30.6624 25.8125 32.1562V46.6562C25.8125 48.1501 27.0374 49.375 28.5312 49.375H48.4688C49.9626 49.375 51.1875 48.1501 51.1875 46.6562V32.1562C51.1875 30.6624 49.9626 29.4375 48.4688 29.4375H43.9375V28.5312C43.9375 27.0374 42.7126 25.8125 41.2188 25.8125H35.7812ZM35.7812 27.625H41.2188C41.7285 27.625 42.125 28.0215 42.125 28.5312V29.4375H34.875V28.5312C34.875 28.0215 35.2715 27.625 35.7812 27.625ZM28.5312 31.25H48.4688C48.9785 31.25 49.375 31.6465 49.375 32.1562V38.5H45.75V36.6875H42.125V38.5H34.875V36.6875H31.25V38.5H27.625V32.1562C27.625 31.6465 28.0215 31.25 28.5312 31.25ZM27.625 40.3125H49.375V46.6562C49.375 47.166 48.9785 47.5625 48.4688 47.5625H28.5312C28.0215 47.5625 27.625 47.166 27.625 46.6562V40.3125Z" fill="#5E5E5E"/>
</svg>
