<svg width="33" height="33" viewBox="0 0 33 33" fill='black' xmlns="http://www.w3.org/2000/svg">
<g id="icons8_link_3 1">
<path id="Vector" d="M8.25 9.625C4.45363 9.625 1.375 12.7036 1.375 16.5C1.375 20.2964 4.45363 23.375 8.25 23.375H13.75V20.625H8.25C5.97162 20.625 4.125 18.7784 4.125 16.5C4.125 14.2216 5.97162 12.375 8.25 12.375H13.75V9.625H8.25ZM19.25 9.625V12.375H24.75C27.0284 12.375 28.875 14.2216 28.875 16.5C28.875 18.7784 27.0284 20.625 24.75 20.625H19.25V23.375H24.75C28.5464 23.375 31.625 20.2964 31.625 16.5C31.625 12.7036 28.5464 9.625 24.75 9.625H19.25ZM9.625 15.125V17.875H23.375V15.125H9.625Z"/>
</g>
</svg>
